<svg width="225" height="50" viewBox="0 0 225 50" fill="none" xmlns="http://www.w3.org/2000/svg">
<path d="M222.976 21.0683L204.518 39.5258C204.087 39.9568 203.502 40.1989 202.892 40.1989C202.283 40.1989 201.698 39.9568 201.267 39.5258L190.971 29.1758C190.541 28.7446 190.299 28.1601 190.299 27.5507C190.299 26.9413 190.541 26.3569 190.971 25.9256L193.846 23.0506C194.277 22.6214 194.861 22.3804 195.469 22.3804C196.078 22.3804 196.661 22.6214 197.092 23.0506L202.95 28.7316L216.859 14.9934C217.29 14.5638 217.874 14.3225 218.483 14.3225C219.092 14.3225 219.675 14.5638 220.107 14.9934L222.974 17.8023C223.19 18.016 223.361 18.2704 223.478 18.5506C223.595 18.8308 223.655 19.1314 223.655 19.435C223.656 19.7387 223.596 20.0393 223.479 20.3196C223.362 20.6 223.191 20.8544 222.976 21.0683Z" fill="url(#paint0_linear_765_8591)"/>
<path d="M10.3899 40.3996C8.63157 40.3996 7.04645 39.96 5.6345 39.0809C4.22254 38.2018 3.11696 37.0029 2.31774 35.4844C1.51852 33.9659 1.11891 32.2609 1.11891 30.3694C1.11891 28.4513 1.51852 26.733 2.31774 25.2144C3.11696 23.6959 4.22254 22.4971 5.6345 21.618C7.04645 20.7388 8.63157 20.2992 10.3899 20.2992C11.7752 20.2992 13.014 20.579 14.1062 21.1384C15.1985 21.6979 16.0643 22.4838 16.7037 23.4961C17.3697 24.4818 17.7294 25.6007 17.7826 26.8528V33.806C17.7294 35.0848 17.3697 36.217 16.7037 37.2027C16.0643 38.1884 15.1985 38.9743 14.1062 39.5604C13.014 40.1199 11.7752 40.3996 10.3899 40.3996ZM11.3489 35.5643C12.8142 35.5643 13.9997 35.0848 14.9054 34.1257C15.8112 33.14 16.2641 31.8746 16.2641 30.3294C16.2641 29.3171 16.051 28.4246 15.6247 27.6521C15.2251 26.8528 14.6524 26.2401 13.9064 25.8139C13.1871 25.361 12.3346 25.1345 11.3489 25.1345C10.3899 25.1345 9.53735 25.361 8.79142 25.8139C8.07212 26.2401 7.49934 26.8528 7.07309 27.6521C6.67348 28.4246 6.47368 29.3171 6.47368 30.3294C6.47368 31.3684 6.67348 32.2875 7.07309 33.0868C7.49934 33.8593 8.07212 34.4721 8.79142 34.925C9.53735 35.3512 10.3899 35.5643 11.3489 35.5643ZM15.9844 40V34.8051L16.8236 30.0897L15.9844 25.4542V20.6988H21.1793V40H15.9844ZM33.2432 40.3996C31.5382 40.3996 30.0196 40.04 28.6876 39.3207C27.3822 38.6014 26.3566 37.6023 25.6106 36.3236C24.8647 35.0448 24.4917 33.5663 24.4917 31.8879V20.6988H29.7666V31.768C29.7666 32.5673 29.8998 33.2599 30.1662 33.846C30.4326 34.4055 30.8322 34.8317 31.365 35.1248C31.8978 35.4178 32.5239 35.5643 33.2432 35.5643C34.3354 35.5643 35.1879 35.2313 35.8007 34.5653C36.4134 33.8993 36.7198 32.9669 36.7198 31.768V20.6988H41.9547V31.8879C41.9547 33.5929 41.5817 35.0848 40.8357 36.3636C40.1165 37.6423 39.0908 38.6413 37.7588 39.3606C36.4534 40.0533 34.9482 40.3996 33.2432 40.3996ZM48.1614 40V12.6667H53.3963V40H48.1614ZM43.6458 25.2944V20.6988H57.9119V25.2944H43.6458ZM73.044 40V28.9308C73.044 27.7853 72.6843 26.8528 71.965 26.1335C71.2457 25.4142 70.3133 25.0546 69.1678 25.0546C68.4218 25.0546 67.7558 25.2144 67.1697 25.5341C66.5836 25.8538 66.1174 26.3067 65.7711 26.8928C65.4514 27.4789 65.2916 28.1582 65.2916 28.9308L63.2535 27.8918C63.2535 26.3733 63.5732 25.0546 64.2126 23.9357C64.852 22.7901 65.7311 21.8977 66.85 21.2583C67.9956 20.6189 69.301 20.2992 70.7662 20.2992C72.2314 20.2992 73.5235 20.6189 74.6424 21.2583C75.788 21.8977 76.6804 22.7768 77.3198 23.8957C77.9592 25.0146 78.2789 26.3067 78.2789 27.7719V40H73.044ZM60.0567 40V11.1082H65.2916V40H60.0567ZM90.9275 40.3996C88.9028 40.3996 87.1045 39.9734 85.5327 39.1209C83.9609 38.2417 82.7088 37.0429 81.7764 35.5244C80.8706 34.0059 80.4177 32.2742 80.4177 30.3294C80.4177 28.4113 80.8573 26.7063 81.7364 25.2144C82.6422 23.6959 83.8677 22.4971 85.4128 21.618C86.958 20.7122 88.6763 20.2593 90.5678 20.2593C92.4327 20.2593 94.0711 20.6855 95.483 21.538C96.9216 22.3639 98.0405 23.5094 98.8397 24.9747C99.6656 26.4133 100.079 28.0517 100.079 29.8899C100.079 30.2362 100.052 30.5958 99.9986 30.9688C99.972 31.3151 99.9054 31.7148 99.7988 32.1676L83.5746 32.2076V28.2914L97.3612 28.2515L95.2432 29.8899C95.19 28.7443 94.9768 27.7853 94.6039 27.0127C94.2575 26.2401 93.738 25.654 93.0454 25.2544C92.3794 24.8281 91.5535 24.615 90.5678 24.615C89.5288 24.615 88.623 24.8548 87.8505 25.3343C87.0779 25.7872 86.4785 26.4399 86.0522 27.2924C85.6526 28.1183 85.4528 29.104 85.4528 30.2495C85.4528 31.4217 85.6659 32.4474 86.0922 33.3265C86.5451 34.179 87.1844 34.845 88.0103 35.3246C88.8362 35.7775 89.7952 36.0039 90.8875 36.0039C91.8732 36.0039 92.7657 35.8441 93.5649 35.5244C94.3641 35.178 95.0568 34.6719 95.6428 34.0059L98.7198 37.0828C97.7874 38.1751 96.6419 39.001 95.2832 39.5604C93.9512 40.1199 92.4993 40.3996 90.9275 40.3996ZM115.504 40V28.9308C115.504 27.7853 115.144 26.8528 114.425 26.1335C113.706 25.4142 112.773 25.0546 111.628 25.0546C110.882 25.0546 110.216 25.2144 109.63 25.5341C109.044 25.8538 108.578 26.3067 108.231 26.8928C107.911 27.4789 107.752 28.1582 107.752 28.9308L105.714 27.8918C105.714 26.3733 106.033 25.0546 106.673 23.9357C107.339 22.7901 108.245 21.8977 109.39 21.2583C110.562 20.6189 111.881 20.2992 113.346 20.2992C114.758 20.2992 116.024 20.6589 117.142 21.3782C118.261 22.0708 119.141 22.9899 119.78 24.1355C120.419 25.2544 120.739 26.4665 120.739 27.7719V40H115.504ZM102.517 40V20.6988H107.752V40H102.517ZM126.76 40V12.6667H131.995V40H126.76ZM122.244 25.2944V20.6988H136.51V25.2944H122.244ZM138.655 40V20.6988H143.93V40H138.655ZM141.292 17.5819C140.44 17.5819 139.734 17.3022 139.174 16.7427C138.615 16.1566 138.335 15.4373 138.335 14.5848C138.335 13.759 138.615 13.053 139.174 12.4669C139.734 11.8808 140.44 11.5877 141.292 11.5877C142.171 11.5877 142.877 11.8808 143.41 12.4669C143.97 13.053 144.249 13.759 144.249 14.5848C144.249 15.4373 143.97 16.1566 143.41 16.7427C142.877 17.3022 142.171 17.5819 141.292 17.5819ZM156.879 40.3996C154.908 40.3996 153.136 39.96 151.564 39.0809C149.992 38.2018 148.754 37.0029 147.848 35.4844C146.942 33.9659 146.489 32.2609 146.489 30.3694C146.489 28.4513 146.942 26.733 147.848 25.2144C148.754 23.6959 149.992 22.4971 151.564 21.618C153.163 20.7122 154.934 20.2593 156.879 20.2593C158.398 20.2593 159.796 20.539 161.075 21.0985C162.354 21.6579 163.459 22.4571 164.392 23.4961L161.035 26.8928C160.529 26.3333 159.916 25.9071 159.197 25.614C158.504 25.321 157.731 25.1745 156.879 25.1745C155.92 25.1745 155.054 25.4009 154.282 25.8538C153.536 26.2801 152.936 26.8795 152.483 27.6521C152.057 28.398 151.844 29.2905 151.844 30.3294C151.844 31.3418 152.057 32.2476 152.483 33.0468C152.936 33.8194 153.536 34.4321 154.282 34.885C155.054 35.3112 155.92 35.5244 156.879 35.5244C157.758 35.5244 158.544 35.3778 159.237 35.0848C159.956 34.7651 160.569 34.3122 161.075 33.7261L164.472 37.1228C163.486 38.1884 162.354 39.001 161.075 39.5604C159.796 40.1199 158.398 40.3996 156.879 40.3996ZM178.945 40L171.472 30.0497L178.905 20.6988H184.939L176.228 31.2485L176.427 28.691L185.339 40H178.945ZM166.637 40V11.1082H171.872V40H166.637Z" fill="#141622"/>
<defs>
<linearGradient id="paint0_linear_765_8591" x1="220.967" y1="14.1338" x2="200.267" y2="40.2005" gradientUnits="userSpaceOnUse">
<stop stop-color="#6F53FD"/>
<stop offset="1" stop-color="#745EFF"/>
</linearGradient>
</defs>
</svg>
